<svg xmlns="http://www.w3.org/2000/svg" version="1.1" xmlns:xlink="http://www.w3.org/1999/xlink" xmlns:svgjs="http://svgjs.dev/svgjs" width="2000" height="1999" viewBox="0 0 2000 1999"><g transform="matrix(1,0,0,1,-0.431486880466764,-0.4312711370263287)"><svg viewBox="0 0 343 343" data-background-color="#ed1703" preserveAspectRatio="xMidYMid meet" height="1999" width="2000" xmlns="http://www.w3.org/2000/svg" xmlns:xlink="http://www.w3.org/1999/xlink"><g id="tight-bounds" transform="matrix(1,0,0,1,0.0740000000000407,0.07400000000001228)"><svg viewBox="0 0 342.85155851775386 342.85155851775386" height="342.85155851775386" width="342.85155851775386"><g><svg></svg></g><g><svg viewBox="0 0 342.85155851775386 342.85155851775386" height="342.85155851775386" width="342.85155851775386"><g><path d="M0 171.426c0-94.676 76.75-171.426 171.426-171.426 94.676 0 171.426 76.75 171.426 171.426 0 94.676-76.75 171.426-171.426 171.426-94.676 0-171.426-76.75-171.426-171.426zM171.426 338.911c92.499 0 167.485-74.986 167.485-167.485 0-92.499-74.986-167.485-167.485-167.485-92.499 0-167.485 74.986-167.485 167.485 0 92.499 74.986 167.485 167.485 167.485z" data-fill-palette-color="tertiary" fill="#000000" stroke="transparent"></path><ellipse rx="164.56874808852186" ry="164.56874808852186" cx="171.42577925887693" cy="171.42577925887693" fill="#000000" stroke="transparent" stroke-width="0" fill-opacity="1" data-fill-palette-color="tertiary"></ellipse></g><g transform="matrix(1,0,0,1,64.84655864529837,78.15104223511665)"><svg viewBox="0 0 213.1584412271571 186.54947404752056" height="186.54947404752056" width="213.1584412271571"><g><svg viewBox="0 0 213.1584412271571 186.54947404752056" height="186.54947404752056" width="213.1584412271571"><g><svg viewBox="0 0 213.1584412271571 186.54947404752056" height="186.54947404752056" width="213.1584412271571"><g transform="matrix(1,0,0,1,0,112.5638727736198)"><svg viewBox="0 0 213.1584412271571 73.98560127390076" height="73.98560127390076" width="213.1584412271571"><g id="textblocktransform"><svg viewBox="0 0 213.1584412271571 73.98560127390076" height="73.98560127390076" width="213.1584412271571" id="textblock"><g><svg viewBox="0 0 213.1584412271571 43.69682565397998" height="43.69682565397998" width="213.1584412271571"><g transform="matrix(1,0,0,1,0,0)"><svg width="213.1584412271571" viewBox="0.55 -36.9 244.13 50.05" height="43.69682565397998" data-palette-color="#ed1703"><path d="M18.5-31.55L18.5-31.55Q16.85-32.1 14.53-32.1 12.2-32.1 10.35-30.93 8.5-29.75 8.5-27.58 8.5-25.4 9.8-23.8 11.1-22.2 12.95-20.88 14.8-19.55 16.63-18.07 18.45-16.6 19.75-14.4 21.05-12.2 21.05-9.45 21.05-6.7 18.75-3.9L18.75-3.9Q15 0.6 6.35 0.6L6.35 0.6Q5.15 0.6 4.23 0.48 3.3 0.35 2.8 0.3 2.3 0.25 1.75 0.15L1.75 0.15Q0.55-0.05 0.55-0.45L0.55-0.45Q0.55-3.1 1.5-3.7L1.5-3.7Q3.55-3.05 5.7-3.05L5.7-3.05Q16.1-3.05 16.1-9L16.1-9Q16.1-12.1 11.7-15.35L11.7-15.35Q9.85-16.7 8.03-18.15 6.2-19.6 4.9-21.78 3.6-23.95 3.6-26.55L3.6-26.55Q3.6-30.5 7.03-33.05 10.45-35.6 15.05-35.6L15.05-35.6Q16.05-35.6 17.73-35.38 19.4-35.15 19.53-34.8 19.65-34.45 19.65-34 19.65-33.55 19.35-32.68 19.05-31.8 18.5-31.55ZM33.35-13L33.35-13 33.25-6.35Q33.25-4.05 34.1-3.25 34.95-2.45 38-2.45L38-2.45Q42.1-2.45 44-4.78 45.9-7.1 45.9-10.93 45.9-14.75 44.17-16.82 42.45-18.9 39.5-18.9L39.5-18.9Q37.85-18.9 35.72-18.23 33.6-17.55 33.35-16.95L33.35-16.95Q33.25-16.8 33.25-16.3L33.25-16.3 33.3-14.9Q33.35-14.2 33.35-13ZM33.45-0.2L33.45-0.2Q33.3 2.6 33.3 7.9L33.3 7.9Q33.4 9.25 33.4 10.83 33.4 12.4 33.05 12.78 32.7 13.15 29.45 13.15L29.45 13.15Q28.7 13.15 28.45 12.5 28.2 11.85 28.25 10.9L28.25 10.9Q28.55-2.6 28.55-8.2L28.55-8.2 28.45-18.5 28.45-19.15Q28.45-19.6 28.47-19.75 28.5-19.9 28.52-20.23 28.55-20.55 28.6-20.68 28.65-20.8 28.72-21.03 28.8-21.25 28.92-21.33 29.05-21.4 29.25-21.5L29.25-21.5Q29.55-21.7 31.12-21.7 32.7-21.7 32.85-21.65L32.85-21.65Q32.9-21.55 32.95-20.7 33-19.85 33.1-19.45L33.1-19.45Q36.85-22.2 41.27-22.2 45.7-22.2 48.2-19.1 50.7-16 50.7-12.2 50.7-8.4 49.52-5.7 48.35-3 45.55-1.2 42.75 0.6 38.7 0.6L38.7 0.6Q36.4 0.6 33.45-0.2ZM58.3-28.75Q57.8-28.9 57.12-29.78 56.45-30.65 56.47-31.43 56.5-32.2 57.47-33.02 58.45-33.85 60-33.85L60-33.85Q62.3-33.85 62.3-31.65L62.3-31.65Q62.3-30.1 61.32-29.35 60.35-28.6 59.57-28.6 58.8-28.6 58.3-28.75ZM61.4-18.05L61.4-10.85 61.55-0.95Q61.55-0.35 61.4-0.2L61.4-0.2Q60.9 0.05 59.3 0.05 57.7 0.05 57.32-0.18 56.95-0.4 56.95-1.55L56.95-1.55 56.75-10.7Q56.75-15.5 56.8-16.8L56.8-16.8 56.95-19.75Q56.95-21.15 57.4-21.4 57.85-21.65 59.12-21.65 60.4-21.65 61.3-21.5L61.3-21.5Q61.4-19.3 61.4-18.05L61.4-18.05ZM86.14-3.45L86.14-3.45Q86.99-3.45 86.99-2.25L86.99-2.25Q86.99 0.6 79.59 0.6L79.59 0.6Q76.44 0.6 73.99-0.4 71.54-1.4 70.19-3L70.19-3Q67.39-6.3 67.39-10.35L67.39-10.35Q67.39-15.55 71.29-18.78 75.19-22 80.99-22 86.79-22 86.79-20.35L86.79-20.35Q86.79-19.2 86.39-19.05 85.99-18.9 85.79-18.9L85.79-18.9 84.89-18.9Q78.94-18.9 75.64-17.18 72.34-15.45 72.34-11.25 72.34-7.05 74.87-4.88 77.39-2.7 81.94-2.7L81.94-2.7Q82.99-2.7 84.34-3.08 85.69-3.45 86.14-3.45ZM102.34-8.4L102.34-8.4Q103.14-9.2 103.69-10.3L103.69-10.3 104.39-11.7Q104.59-12 106.29-15.3L106.29-15.3Q109.84-22.2 110.64-22.2L110.64-22.2Q111.14-22.2 112.02-21.75 112.89-21.3 112.99-20.95L112.99-20.95Q112.99-20.7 107.87-10.93 102.74-1.15 102.34-0.35L102.34-0.35Q96.49 11.8 95.49 11.8L95.49 11.8Q94.69 11.8 93.74 11.38 92.79 10.95 92.69 10.6L92.69 10.6Q92.69 10.3 93.44 8.65L93.44 8.65Q93.99 7.65 94.99 5.9L94.99 5.9Q97.34 1.8 97.82 0.73 98.29-0.35 98.82-1.23 99.34-2.1 99.74-2.85 100.14-3.6 100.14-3.85 100.14-4.1 98.92-5.7 97.69-7.3 96.49-9.03 95.29-10.75 93.84-12.9 92.39-15.05 91.99-15.65L91.99-15.65 90.84-17.4Q89.19-19.85 89.19-20.43 89.19-21 90.34-21.6 91.49-22.2 92.04-22.2 92.59-22.2 93.54-21.23 94.49-20.25 95.74-18.48 96.99-16.7 98.04-15.1 99.09-13.5 100.44-11.35 101.79-9.2 102.34-8.4ZM132.09-31.55L132.09-31.55Q130.44-32.1 128.11-32.1 125.79-32.1 123.94-30.93 122.09-29.75 122.09-27.58 122.09-25.4 123.39-23.8 124.69-22.2 126.54-20.88 128.39-19.55 130.21-18.07 132.04-16.6 133.34-14.4 134.64-12.2 134.64-9.45 134.64-6.7 132.34-3.9L132.34-3.9Q128.59 0.6 119.94 0.6L119.94 0.6Q118.74 0.6 117.81 0.48 116.89 0.35 116.39 0.3 115.89 0.25 115.34 0.15L115.34 0.15Q114.14-0.05 114.14-0.45L114.14-0.45Q114.14-3.1 115.09-3.7L115.09-3.7Q117.14-3.05 119.29-3.05L119.29-3.05Q129.69-3.05 129.69-9L129.69-9Q129.69-12.1 125.29-15.35L125.29-15.35Q123.44-16.7 121.61-18.15 119.79-19.6 118.49-21.78 117.19-23.95 117.19-26.55L117.19-26.55Q117.19-30.5 120.61-33.05 124.04-35.6 128.64-35.6L128.64-35.6Q129.64-35.6 131.31-35.38 132.99-35.15 133.11-34.8 133.24-34.45 133.24-34 133.24-33.55 132.94-32.68 132.64-31.8 132.09-31.55ZM143.94-21.7L143.94-21.7 146.09-21.65Q146.14-21.6 146.54-19.95L146.54-19.95Q146.94-20.1 148.64-20.8L148.64-20.8Q152.09-22.15 154.04-22.15L154.04-22.15Q157.29-22.15 159.24-19.5L159.24-19.5 159.74-19.85Q160.29-20.2 160.44-20.3L160.44-20.3 161.04-20.65Q161.54-20.95 161.79-21.05 162.04-21.15 162.56-21.4 163.09-21.65 163.46-21.75 163.84-21.85 164.34-22L164.34-22Q165.29-22.2 166.49-22.2L166.49-22.2Q171.74-22.2 173.19-17.2L173.19-17.2Q173.59-16.1 173.69-11.9L173.69-11.9 173.69-2.6Q173.69-0.9 173.11-0.43 172.54 0.05 170.96 0.05 169.39 0.05 169.06-0.18 168.74-0.4 168.74-1.3L168.74-1.3 168.89-4.3 168.89-10.3Q168.89-10.5 168.89-11.6 168.89-12.7 168.86-13.5 168.84-14.3 168.61-15.5 168.39-16.7 167.94-17.2L167.94-17.2Q166.69-18.6 164.24-18.6L164.24-18.6Q159.59-18.6 159.59-15.55L159.59-15.55 159.74-11 159.74-4.2Q159.74-2 159.34-1.3L159.34-1.3Q159.14-0.95 158.44-0.95L158.44-0.95Q155.64-0.95 155.19-1.65L155.19-1.65Q154.84-2.15 154.91-3.2 154.99-4.25 154.99-4.4L154.99-4.4 155.24-13.25Q155.24-16.1 154.29-17.15 153.34-18.2 151.34-18.2L151.34-18.2Q146.54-18.2 146.54-16.35L146.54-16.35 146.64-12.25 146.54-3.6Q146.54-3.3 146.56-2.68 146.59-2.05 146.54-1.85L146.54-1.85 146.49-1.25Q146.44-0.85 146.34-0.7L146.34-0.7Q145.74-0.15 145.34-0.1L145.34-0.1Q144.24 0.05 143.61 0.05 142.99 0.05 142.76 0 142.54-0.05 142.39-0.18 142.24-0.3 142.14-0.43 142.04-0.55 141.96-0.83 141.89-1.1 141.86-1.33 141.84-1.55 141.84-2L141.84-2 141.84-4.55 142.04-14.95 142.14-19.1 142.24-20.1Q142.24-20.7 142.51-21.08 142.79-21.45 142.94-21.5L142.94-21.5Q143.54-21.7 143.94-21.7ZM182.58-28.75Q182.08-28.9 181.41-29.78 180.73-30.65 180.76-31.43 180.78-32.2 181.76-33.02 182.73-33.85 184.28-33.85L184.28-33.85Q186.58-33.85 186.58-31.65L186.58-31.65Q186.58-30.1 185.61-29.35 184.63-28.6 183.86-28.6 183.08-28.6 182.58-28.75ZM185.68-18.05L185.68-10.85 185.83-0.95Q185.83-0.35 185.68-0.2L185.68-0.2Q185.18 0.05 183.58 0.05 181.98 0.05 181.61-0.18 181.23-0.4 181.23-1.55L181.23-1.55 181.03-10.7Q181.03-15.5 181.08-16.8L181.08-16.8 181.23-19.75Q181.23-21.15 181.68-21.4 182.13-21.65 183.41-21.65 184.68-21.65 185.58-21.5L185.58-21.5Q185.68-19.3 185.68-18.05L185.68-18.05ZM193.43-11.7L193.43-16.95 193.33-27.15Q193.33-28.15 193.36-29.08 193.38-30 193.38-30.7L193.38-30.7 193.38-33.05Q193.38-35.3 193.71-36.1 194.03-36.9 195.66-36.9 197.28-36.9 197.68-36.68 198.08-36.45 198.08-35.65L198.08-35.65 198.13-17.2 198.18-6.2Q198.18-4.7 199.08-3.8 199.98-2.9 201.13-2.9 202.28-2.9 203.46-3.18 204.63-3.45 204.93-3.45L204.93-3.45Q205.58-3.45 205.58-2.65L205.58-2.65Q205.58-0.95 203.23-0.15L203.23-0.15Q201.58 0.35 199.71 0.35 197.83 0.35 196.68-0.3 195.53-0.95 194.91-1.9 194.28-2.85 193.93-4.6L193.93-4.6Q193.43-7.05 193.43-11.7L193.43-11.7ZM226.63-12.35L226.63-12.35Q226.63-12.35 215.18-12.3L215.18-12.3Q213.33-12.3 213.03-12L213.03-12Q212.78-11.65 212.78-10.85L212.78-10.85Q212.78-6.95 215-4.88 217.23-2.8 220.08-2.8 222.93-2.8 224.53-3.55L224.53-3.55Q224.58-3.55 225.53-4.2 226.48-4.85 226.85-4.85 227.23-4.85 227.43-4.55 227.63-4.25 227.63-3.95L227.63-3.95Q227.63-2.05 224.83-0.73 222.03 0.6 218.3 0.6 214.58 0.6 211.2-2.4 207.83-5.4 207.83-10.5 207.83-15.6 211-18.9 214.18-22.2 219.53-22.2L219.53-22.2Q223.43-22.2 225.83-19.9L225.83-19.9Q228.38-17.5 228.38-14.1L228.38-14.1Q228.38-12.35 226.63-12.35ZM213.63-14.8L213.63-14.8Q223.13-14.8 224.63-14.9L224.63-14.9Q224.48-16.9 223.1-18.2 221.73-19.5 219.63-19.5 217.53-19.5 215.7-18.03 213.88-16.55 213.63-14.8ZM232.63-2.45L232.63-2.45 234.43-2.25Q236.43-2.25 238.03-3.13 239.63-4 239.63-5.65L239.63-5.65Q239.63-6.25 239.4-6.93 239.18-7.6 237.8-8.88 236.43-10.15 235.28-11.8 234.13-13.45 234.13-15.5L234.13-15.5Q234.13-17.5 235.93-19.7L235.93-19.7Q236.78-20.75 238.48-21.48 240.18-22.2 241.8-22.2 243.43-22.2 243.8-21.83 244.18-21.45 244.08-20.75L244.08-20.75 243.68-19.3Q242.93-19.5 241.95-19.5 240.98-19.5 239.93-18.73 238.88-17.95 238.88-16.75 238.88-15.55 239.78-14.33 240.68-13.1 241.78-12.2 242.88-11.3 243.78-9.75 244.68-8.2 244.68-6.4L244.68-6.4Q244.68-2.95 241.63-1.18 238.58 0.6 234.38 0.6L234.38 0.6Q233.28 0.6 232.78 0.18 232.28-0.25 232.28-1.18 232.28-2.1 232.63-2.45Z" opacity="1" transform="matrix(1,0,0,1,0,0)" fill="#ffffff" class="wordmark-text-0" data-fill-palette-color="quaternary" id="text-0"></path></svg></g></svg></g><g transform="matrix(1,0,0,1,0,54.01259746706896)"><svg viewBox="0 0 213.1584412271571 19.97300380683181" height="19.97300380683181" width="213.1584412271571"><g transform="matrix(1,0,0,1,0,0)"><svg width="213.1584412271571" viewBox="3.3 -36.9 534.09 50.05" height="19.97300380683181" data-palette-color="#ed1703"><path d="M9.25-33.3L9.25-33.3Q9.25-31.85 8.55-26.65 7.85-21.45 7.2-20.1L7.2-20.1Q6.95-19.85 6.25-19.85 5.55-19.85 5.35-20.05L5.35-20.05Q4.7-21.1 4-26.13 3.3-31.15 3.3-32.9L3.3-32.9Q3.3-35.6 6.28-35.6 9.25-35.6 9.25-33.3ZM17.85-33.3L17.85-33.3Q17.85-31.85 17.15-26.65 16.45-21.45 15.8-20.1L15.8-20.1Q15.55-19.85 14.85-19.85 14.15-19.85 13.95-20.05L13.95-20.05Q13.3-21.1 12.6-26.13 11.9-31.15 11.9-32.9L11.9-32.9Q11.9-35.6 14.88-35.6 17.85-35.6 17.85-33.3ZM39.65-31.55L39.65-31.55Q38-32.1 35.67-32.1 33.35-32.1 31.5-30.93 29.65-29.75 29.65-27.58 29.65-25.4 30.95-23.8 32.25-22.2 34.1-20.88 35.95-19.55 37.77-18.07 39.6-16.6 40.9-14.4 42.2-12.2 42.2-9.45 42.2-6.7 39.9-3.9L39.9-3.9Q36.15 0.6 27.5 0.6L27.5 0.6Q26.3 0.6 25.37 0.48 24.45 0.35 23.95 0.3 23.45 0.25 22.9 0.15L22.9 0.15Q21.7-0.05 21.7-0.45L21.7-0.45Q21.7-3.1 22.65-3.7L22.65-3.7Q24.7-3.05 26.85-3.05L26.85-3.05Q37.25-3.05 37.25-9L37.25-9Q37.25-12.1 32.85-15.35L32.85-15.35Q31-16.7 29.17-18.15 27.35-19.6 26.05-21.78 24.75-23.95 24.75-26.55L24.75-26.55Q24.75-30.5 28.17-33.05 31.6-35.6 36.2-35.6L36.2-35.6Q37.2-35.6 38.87-35.38 40.55-35.15 40.67-34.8 40.8-34.45 40.8-34 40.8-33.55 40.5-32.68 40.2-31.8 39.65-31.55ZM51.5-21.7L51.5-21.7 53.65-21.65Q53.7-21.6 54.1-19.95L54.1-19.95Q54.5-20.1 56.2-20.8L56.2-20.8Q59.65-22.15 61.6-22.15L61.6-22.15Q64.84-22.15 66.8-19.5L66.8-19.5 67.3-19.85Q67.84-20.2 68-20.3L68-20.3 68.59-20.65Q69.09-20.95 69.34-21.05 69.59-21.15 70.12-21.4 70.65-21.65 71.02-21.75 71.4-21.85 71.9-22L71.9-22Q72.84-22.2 74.05-22.2L74.05-22.2Q79.3-22.2 80.75-17.2L80.75-17.2Q81.15-16.1 81.25-11.9L81.25-11.9 81.25-2.6Q81.25-0.9 80.67-0.43 80.09 0.05 78.52 0.05 76.95 0.05 76.62-0.18 76.3-0.4 76.3-1.3L76.3-1.3 76.45-4.3 76.45-10.3Q76.45-10.5 76.45-11.6 76.45-12.7 76.42-13.5 76.4-14.3 76.17-15.5 75.95-16.7 75.5-17.2L75.5-17.2Q74.25-18.6 71.8-18.6L71.8-18.6Q67.15-18.6 67.15-15.55L67.15-15.55 67.3-11 67.3-4.2Q67.3-2 66.9-1.3L66.9-1.3Q66.7-0.95 66-0.95L66-0.95Q63.2-0.95 62.75-1.65L62.75-1.65Q62.4-2.15 62.47-3.2 62.55-4.25 62.55-4.4L62.55-4.4 62.8-13.25Q62.8-16.1 61.85-17.15 60.9-18.2 58.9-18.2L58.9-18.2Q54.1-18.2 54.1-16.35L54.1-16.35 54.2-12.25 54.1-3.6Q54.1-3.3 54.12-2.68 54.15-2.05 54.1-1.85L54.1-1.85 54.05-1.25Q54-0.85 53.9-0.7L53.9-0.7Q53.3-0.15 52.9-0.1L52.9-0.1Q51.8 0.05 51.17 0.05 50.55 0.05 50.32 0 50.1-0.05 49.95-0.18 49.8-0.3 49.7-0.43 49.6-0.55 49.52-0.83 49.45-1.1 49.42-1.33 49.4-1.55 49.4-2L49.4-2 49.4-4.55 49.6-14.95 49.7-19.1 49.8-20.1Q49.8-20.7 50.07-21.08 50.35-21.45 50.5-21.5L50.5-21.5Q51.1-21.7 51.5-21.7ZM90.14-28.75Q89.64-28.9 88.97-29.78 88.29-30.65 88.32-31.43 88.34-32.2 89.32-33.02 90.29-33.85 91.84-33.85L91.84-33.85Q94.14-33.85 94.14-31.65L94.14-31.65Q94.14-30.1 93.17-29.35 92.19-28.6 91.42-28.6 90.64-28.6 90.14-28.75ZM93.24-18.05L93.24-10.85 93.39-0.95Q93.39-0.35 93.24-0.2L93.24-0.2Q92.74 0.05 91.14 0.05 89.54 0.05 89.17-0.18 88.79-0.4 88.79-1.55L88.79-1.55 88.59-10.7Q88.59-15.5 88.64-16.8L88.64-16.8 88.79-19.75Q88.79-21.15 89.24-21.4 89.69-21.65 90.97-21.65 92.24-21.65 93.14-21.5L93.14-21.5Q93.24-19.3 93.24-18.05L93.24-18.05ZM100.99-11.7L100.99-16.95 100.89-27.15Q100.89-28.15 100.92-29.08 100.94-30 100.94-30.7L100.94-30.7 100.94-33.05Q100.94-35.3 101.27-36.1 101.59-36.9 103.22-36.9 104.84-36.9 105.24-36.68 105.64-36.45 105.64-35.65L105.64-35.65 105.69-17.2 105.74-6.2Q105.74-4.7 106.64-3.8 107.54-2.9 108.69-2.9 109.84-2.9 111.02-3.18 112.19-3.45 112.49-3.45L112.49-3.45Q113.14-3.45 113.14-2.65L113.14-2.65Q113.14-0.95 110.79-0.15L110.79-0.15Q109.14 0.35 107.27 0.35 105.39 0.35 104.24-0.3 103.09-0.95 102.47-1.9 101.84-2.85 101.49-4.6L101.49-4.6Q100.99-7.05 100.99-11.7L100.99-11.7ZM134.19-12.35L134.19-12.35Q134.19-12.35 122.74-12.3L122.74-12.3Q120.89-12.3 120.59-12L120.59-12Q120.34-11.65 120.34-10.85L120.34-10.85Q120.34-6.95 122.56-4.88 124.79-2.8 127.64-2.8 130.49-2.8 132.09-3.55L132.09-3.55Q132.14-3.55 133.09-4.2 134.04-4.85 134.41-4.85 134.79-4.85 134.99-4.55 135.19-4.25 135.19-3.95L135.19-3.95Q135.19-2.05 132.39-0.73 129.59 0.6 125.86 0.6 122.14 0.6 118.76-2.4 115.39-5.4 115.39-10.5 115.39-15.6 118.56-18.9 121.74-22.2 127.09-22.2L127.09-22.2Q130.99-22.2 133.39-19.9L133.39-19.9Q135.94-17.5 135.94-14.1L135.94-14.1Q135.94-12.35 134.19-12.35ZM121.19-14.8L121.19-14.8Q130.69-14.8 132.19-14.9L132.19-14.9Q132.04-16.9 130.66-18.2 129.29-19.5 127.19-19.5 125.09-19.5 123.26-18.03 121.44-16.55 121.19-14.8ZM169.63-8.15L169.63-8.15Q168.13-6.55 167.63-5.75L167.63-5.75Q163.38 0.65 162.38 0.65L162.38 0.65Q162.13 0.65 161.38-0.15 160.63-0.95 160.26-1.65 159.88-2.35 156.38-9.47 152.88-16.6 152.08-18.32 151.28-20.05 151.28-20.58 151.28-21.1 152.61-21.65 153.93-22.2 154.28-22.2 154.63-22.2 154.68-22.2L154.68-22.2Q155.38-22.15 156.98-18.35L156.98-18.35Q158.48-15.15 160.81-10.13 163.13-5.1 163.08-5.1L163.08-5.1 164.28-6.6Q167.93-11.15 167.98-11.35L167.98-11.35Q167.23-13.25 166.93-13.8 166.63-14.35 165.98-15.88 165.33-17.4 164.78-18.48 164.23-19.55 164.23-19.9 164.23-20.25 164.68-20.55 165.13-20.85 165.61-21.08 166.08-21.3 166.71-21.58 167.33-21.85 167.48-21.88 167.63-21.9 167.93-21.6 168.23-21.3 168.53-20.83 168.83-20.35 169.08-19.9L169.08-19.9Q170.33-17.65 172.21-13.53 174.08-9.4 174.53-8.45L174.53-8.45Q175.38-6.3 175.78-5.9L175.78-5.9Q176.18-5.9 177.48-8.53 178.78-11.15 179.51-12.68 180.23-14.2 181.08-16.07 181.93-17.95 182.23-18.55L182.23-18.55Q182.88-20.55 183.93-21.65L183.93-21.65Q184.28-22.05 184.66-22.13 185.03-22.2 185.71-21.9 186.38-21.6 186.48-21.35L186.48-21.35Q186.48-20.45 185.48-17.95L185.48-17.95Q182.58-11.55 181.13-8.95 179.68-6.35 179.11-5.25 178.53-4.15 178.03-3.28 177.53-2.4 176.98-1.45L176.98-1.45Q175.73 0.6 174.93 0.6L174.93 0.6Q174.53 0.6 172.38-3.28 170.23-7.15 169.63-8.15ZM192.43-28.75Q191.93-28.9 191.25-29.78 190.58-30.65 190.6-31.43 190.63-32.2 191.6-33.02 192.58-33.85 194.13-33.85L194.13-33.85Q196.43-33.85 196.43-31.65L196.43-31.65Q196.43-30.1 195.46-29.35 194.48-28.6 193.71-28.6 192.93-28.6 192.43-28.75ZM195.53-18.05L195.53-10.85 195.68-0.95Q195.68-0.35 195.53-0.2L195.53-0.2Q195.03 0.05 193.43 0.05 191.83 0.05 191.46-0.18 191.08-0.4 191.08-1.55L191.08-1.55 190.88-10.7Q190.88-15.5 190.93-16.8L190.93-16.8 191.08-19.75Q191.08-21.15 191.53-21.4 191.98-21.65 193.25-21.65 194.53-21.65 195.43-21.5L195.43-21.5Q195.53-19.3 195.53-18.05L195.53-18.05ZM209.08-14.45L209.08-14.45 208.98-7.25Q208.98-5.2 209.68-4.13 210.38-3.05 212.03-3.05 213.68-3.05 214.83-3.35L214.83-3.35Q216.98-3.95 216.98-2.75L216.98-2.75Q216.98 0.6 210.78 0.6L210.78 0.6Q207.28 0.6 205.33-2.55L205.33-2.55Q204.38-4.55 204.38-7.3L204.38-7.3 204.48-13.1 204.58-17.3Q204.58-18 204.38-18.18 204.18-18.35 203.63-18.35L203.63-18.35 201.68-18.2Q200.43-18.2 200.43-19L200.43-19Q200.43-20.4 200.75-20.98 201.08-21.55 201.98-21.55L201.98-21.55 203.93-21.4Q204.63-21.4 204.63-23.1L204.63-23.1Q204.63-23.3 204.63-23.35L204.63-23.35 204.63-26.2Q204.63-27.5 204.68-27.7L204.68-27.7Q205.28-28 208.63-28L208.63-28Q209.53-28 209.53-27.05L209.53-27.05 209.38-21.55Q209.98-21.5 211.33-21.5L211.33-21.5 215.33-21.8Q216.13-21.8 216.13-20.85L216.13-20.85Q216.13-18.1 213.43-18.1L213.43-18.1 210.18-18.3Q209.38-18.3 209.18-18.2L209.18-18.2Q209.08-17.3 209.08-14.45ZM221.93-2.2L221.93-2.2 222.18-19.65 222.18-35.25Q222.18-36.1 222.68-36.5 223.18-36.9 225.08-36.9 226.98-36.9 226.98-35.9L226.98-35.9 226.98-34.5Q226.88-32 226.88-29.55 226.88-27.1 226.9-23.88 226.93-20.65 226.93-20.15L226.93-20.15Q229.18-21.25 231.25-21.73 233.33-22.2 234.38-22.2L234.38-22.2Q239.23-22.2 240.98-19.7 242.73-17.2 242.73-11.2 242.73-5.2 242.65-4.23 242.58-3.25 242.58-2.5L242.58-2.5 242.58-1.5Q242.58-0.5 242.13-0.3L242.13-0.3Q241.03 0.1 240 0.1 238.98 0.1 238.58 0 238.18-0.1 238.03-0.5 237.88-0.9 237.85-1.1 237.83-1.3 237.85-2.1 237.88-2.9 237.88-3.2L237.88-3.2 237.93-12.65Q237.93-16 236.9-17.38 235.88-18.75 232.48-18.75L232.48-18.75Q227.08-18.75 227.08-17L227.08-17 227.03-12.7Q227.03-5.6 226.95-3.95 226.88-2.3 226.9-1.83 226.93-1.35 226.88-0.98 226.83-0.6 226.58-0.4L226.58-0.4Q226.13 0.1 224.73 0.1 223.33 0.1 222.88 0L222.88 0Q221.93-0.25 221.93-2.2ZM281.62-31.3L281.62-31.3 275.47-31.4Q270.37-31.4 268.37-31.05L268.37-31.05Q268.27-27.65 268.27-20.55L268.27-20.55 276.82-20.6 277.67-20.6Q282.47-20.6 282.47-19.83 282.47-19.05 282.12-18.13 281.77-17.2 281.32-17.05 280.87-16.9 279.42-16.9L279.42-16.9 268.37-16.95Q268.32-15.5 268.32-14.65L268.32-14.65 268.27-10.6 268.27-7.8Q268.27-4.5 268.42-4.2L268.42-4.2Q268.72-3.6 277.72-3.6L277.72-3.6Q280.82-3.6 282.17-3.75L282.17-3.75 284.27-4.15Q285.02-4.15 285.02-3.68 285.02-3.2 284.57-2.15L284.57-2.15Q284.07-0.45 283.87-0.3L283.87-0.3Q283.32 0 275.87 0L275.87 0 266.72 0Q264.02 0 263.6-0.38 263.17-0.75 263.17-6.8L263.17-6.8 263.32-24.65 263.37-28.7 263.32-32.45Q263.32-34.15 263.62-34.45L263.62-34.45Q264.02-34.9 266.52-34.9L266.52-34.9 273.57-35 280.17-34.95Q282.52-34.95 282.77-34.68 283.02-34.4 283.02-34.15L283.02-34.15 282.82-32.95Q282.77-32.7 282.77-32.38 282.77-32.05 282.75-31.9 282.72-31.75 282.62-31.6L282.62-31.6Q282.47-31.3 281.62-31.3ZM299.82-6.2L299.82-6.2Q300.77-7.45 301.57-9.03 302.37-10.6 304.52-15.25 306.67-19.9 307.77-22L307.77-22Q307.92-22.2 308.37-22.2 308.82-22.2 309.54-21.8 310.27-21.4 310.42-21.1L310.42-21.1Q310.47-20.75 309.42-18.45L309.42-18.45Q305.52-9.25 301.12-1.65L301.12-1.65 300.72-0.9Q299.82 0.6 299.22 0.6L299.22 0.6Q298.07 0.6 297.02-1.3L297.02-1.3Q292.27-10.6 291.14-13.08 290.02-15.55 289.37-16.7L289.37-16.7Q287.82-19.55 287.82-20.6L287.82-20.6Q287.82-21.1 289.07-21.65 290.32-22.2 290.79-22.2 291.27-22.2 291.52-22.2 291.77-22.2 292.24-21.53 292.72-20.85 293.24-19.7 293.77-18.55 294.24-17.68 294.72-16.8 296.64-12.5 298.57-8.2 299.82-6.2ZM332.02-12.35L332.02-12.35Q332.02-12.35 320.57-12.3L320.57-12.3Q318.72-12.3 318.42-12L318.42-12Q318.17-11.65 318.17-10.85L318.17-10.85Q318.17-6.95 320.39-4.88 322.62-2.8 325.47-2.8 328.32-2.8 329.92-3.55L329.92-3.55Q329.97-3.55 330.92-4.2 331.87-4.85 332.24-4.85 332.62-4.85 332.82-4.55 333.02-4.25 333.02-3.95L333.02-3.95Q333.02-2.05 330.22-0.73 327.42 0.6 323.69 0.6 319.97 0.6 316.59-2.4 313.22-5.4 313.22-10.5 313.22-15.6 316.39-18.9 319.57-22.2 324.92-22.2L324.92-22.2Q328.82-22.2 331.22-19.9L331.22-19.9Q333.77-17.5 333.77-14.1L333.77-14.1Q333.77-12.35 332.02-12.35ZM319.02-14.8L319.02-14.8Q328.52-14.8 330.02-14.9L330.02-14.9Q329.87-16.9 328.49-18.2 327.12-19.5 325.02-19.5 322.92-19.5 321.09-18.03 319.27-16.55 319.02-14.8ZM339.86-5.3L339.86-5.3 340.21-16.4Q340.26-16.8 340.26-17.8 340.26-18.8 340.34-19.3 340.41-19.8 340.56-20.5L340.56-20.5Q340.86-21.75 342.01-21.75L342.01-21.75Q344.51-21.75 344.51-20.65L344.51-20.65Q344.51-19.8 344.56-19.45L344.56-19.45Q344.86-19.45 347.46-20.8 350.06-22.15 351.91-22.15L351.91-22.15Q352.66-22.15 352.94-21.78 353.21-21.4 353.21-20.05 353.21-18.7 352.86-18L352.86-18Q352.56-17.95 351.79-17.85 351.01-17.75 350.64-17.7 350.26-17.65 349.56-17.53 348.86-17.4 348.46-17.32 348.06-17.25 347.49-17.13 346.91-17 346.54-16.85 346.16-16.7 345.76-16.55L345.76-16.55Q344.96-16.25 344.66-15.75L344.66-15.75 344.66-12.5 344.76-4 344.76-3.25Q344.76-3.05 344.76-2.43 344.76-1.8 344.74-1.4 344.71-1 344.51-0.6L344.51-0.6Q344.11 0.05 342.44 0.05 340.76 0.05 340.46-0.15L340.46-0.15Q339.86-0.55 339.86-5.3ZM367.46-8.4L367.46-8.4Q368.26-9.2 368.81-10.3L368.81-10.3 369.51-11.7Q369.71-12 371.41-15.3L371.41-15.3Q374.96-22.2 375.76-22.2L375.76-22.2Q376.26-22.2 377.14-21.75 378.01-21.3 378.11-20.95L378.11-20.95Q378.11-20.7 372.99-10.93 367.86-1.15 367.46-0.35L367.46-0.35Q361.61 11.8 360.61 11.8L360.61 11.8Q359.81 11.8 358.86 11.38 357.91 10.95 357.81 10.6L357.81 10.6Q357.81 10.3 358.56 8.65L358.56 8.65Q359.11 7.65 360.11 5.9L360.11 5.9Q362.46 1.8 362.94 0.73 363.41-0.35 363.94-1.23 364.46-2.1 364.86-2.85 365.26-3.6 365.26-3.85 365.26-4.1 364.04-5.7 362.81-7.3 361.61-9.03 360.41-10.75 358.96-12.9 357.51-15.05 357.11-15.65L357.11-15.65 355.96-17.4Q354.31-19.85 354.31-20.43 354.31-21 355.46-21.6 356.61-22.2 357.16-22.2 357.71-22.2 358.66-21.23 359.61-20.25 360.86-18.48 362.11-16.7 363.16-15.1 364.21-13.5 365.56-11.35 366.91-9.2 367.46-8.4ZM409.71-31.55L409.71-31.55Q408.06-32.1 405.73-32.1 403.41-32.1 401.56-30.93 399.71-29.75 399.71-27.58 399.71-25.4 401.01-23.8 402.31-22.2 404.16-20.88 406.01-19.55 407.83-18.07 409.66-16.6 410.96-14.4 412.26-12.2 412.26-9.45 412.26-6.7 409.96-3.9L409.96-3.9Q406.21 0.6 397.56 0.6L397.56 0.6Q396.36 0.6 395.43 0.48 394.51 0.35 394.01 0.3 393.51 0.25 392.96 0.15L392.96 0.15Q391.76-0.05 391.76-0.45L391.76-0.45Q391.76-3.1 392.71-3.7L392.71-3.7Q394.76-3.05 396.91-3.05L396.91-3.05Q407.31-3.05 407.31-9L407.31-9Q407.31-12.1 402.91-15.35L402.91-15.35Q401.06-16.7 399.23-18.15 397.41-19.6 396.11-21.78 394.81-23.95 394.81-26.55L394.81-26.55Q394.81-30.5 398.23-33.05 401.66-35.6 406.26-35.6L406.26-35.6Q407.26-35.6 408.93-35.38 410.61-35.15 410.73-34.8 410.86-34.45 410.86-34 410.86-33.55 410.56-32.68 410.26-31.8 409.71-31.55ZM424.55-13L424.55-13 424.45-6.35Q424.45-4.05 425.3-3.25 426.15-2.45 429.2-2.45L429.2-2.45Q433.3-2.45 435.2-4.78 437.1-7.1 437.1-10.93 437.1-14.75 435.38-16.82 433.65-18.9 430.7-18.9L430.7-18.9Q429.05-18.9 426.93-18.23 424.8-17.55 424.55-16.95L424.55-16.95Q424.45-16.8 424.45-16.3L424.45-16.3 424.5-14.9Q424.55-14.2 424.55-13ZM424.65-0.2L424.65-0.2Q424.5 2.6 424.5 7.9L424.5 7.9Q424.6 9.25 424.6 10.83 424.6 12.4 424.25 12.78 423.9 13.15 420.65 13.15L420.65 13.15Q419.9 13.15 419.65 12.5 419.4 11.85 419.45 10.9L419.45 10.9Q419.75-2.6 419.75-8.2L419.75-8.2 419.65-18.5 419.65-19.15Q419.65-19.6 419.68-19.75 419.7-19.9 419.73-20.23 419.75-20.55 419.8-20.68 419.85-20.8 419.93-21.03 420-21.25 420.13-21.33 420.25-21.4 420.45-21.5L420.45-21.5Q420.75-21.7 422.33-21.7 423.9-21.7 424.05-21.65L424.05-21.65Q424.1-21.55 424.15-20.7 424.2-19.85 424.3-19.45L424.3-19.45Q428.05-22.2 432.48-22.2 436.9-22.2 439.4-19.1 441.9-16 441.9-12.2 441.9-8.4 440.73-5.7 439.55-3 436.75-1.2 433.95 0.6 429.9 0.6L429.9 0.6Q427.6 0.6 424.65-0.2ZM449.5-28.75Q449-28.9 448.33-29.78 447.65-30.65 447.68-31.43 447.7-32.2 448.68-33.02 449.65-33.85 451.2-33.85L451.2-33.85Q453.5-33.85 453.5-31.65L453.5-31.65Q453.5-30.1 452.53-29.35 451.55-28.6 450.78-28.6 450-28.6 449.5-28.75ZM452.6-18.05L452.6-10.85 452.75-0.95Q452.75-0.35 452.6-0.2L452.6-0.2Q452.1 0.05 450.5 0.05 448.9 0.05 448.53-0.18 448.15-0.4 448.15-1.55L448.15-1.55 447.95-10.7Q447.95-15.5 448-16.8L448-16.8 448.15-19.75Q448.15-21.15 448.6-21.4 449.05-21.65 450.33-21.65 451.6-21.65 452.5-21.5L452.5-21.5Q452.6-19.3 452.6-18.05L452.6-18.05ZM477.35-3.45L477.35-3.45Q478.2-3.45 478.2-2.25L478.2-2.25Q478.2 0.6 470.8 0.6L470.8 0.6Q467.65 0.6 465.2-0.4 462.75-1.4 461.4-3L461.4-3Q458.6-6.3 458.6-10.35L458.6-10.35Q458.6-15.55 462.5-18.78 466.4-22 472.2-22 478-22 478-20.35L478-20.35Q478-19.2 477.6-19.05 477.2-18.9 477-18.9L477-18.9 476.1-18.9Q470.15-18.9 466.85-17.18 463.55-15.45 463.55-11.25 463.55-7.05 466.07-4.88 468.6-2.7 473.15-2.7L473.15-2.7Q474.2-2.7 475.55-3.08 476.9-3.45 477.35-3.45ZM500.85-12.35L500.85-12.35Q500.85-12.35 489.4-12.3L489.4-12.3Q487.55-12.3 487.25-12L487.25-12Q487-11.65 487-10.85L487-10.85Q487-6.95 489.22-4.88 491.45-2.8 494.3-2.8 497.15-2.8 498.75-3.55L498.75-3.55Q498.8-3.55 499.75-4.2 500.7-4.85 501.07-4.85 501.45-4.85 501.65-4.55 501.85-4.25 501.85-3.95L501.85-3.95Q501.85-2.05 499.05-0.73 496.25 0.6 492.52 0.6 488.8 0.6 485.42-2.4 482.05-5.4 482.05-10.5 482.05-15.6 485.22-18.9 488.4-22.2 493.75-22.2L493.75-22.2Q497.65-22.2 500.05-19.9L500.05-19.9Q502.6-17.5 502.6-14.1L502.6-14.1Q502.6-12.35 500.85-12.35ZM487.85-14.8L487.85-14.8Q497.35-14.8 498.85-14.9L498.85-14.9Q498.7-16.9 497.32-18.2 495.95-19.5 493.85-19.5 491.75-19.5 489.92-18.03 488.1-16.55 487.85-14.8ZM511.94-11.25L511.94-11.25Q510.94-11.25 510.74-13.7L510.74-13.7Q510.59-14.95 510.14-19.4L510.14-19.4Q509.09-29.1 509.09-32.05L509.09-32.05Q509.09-35.6 512.54-35.6L512.54-35.6Q515.34-35.6 515.34-31.7L515.34-31.7Q515.04-24.7 514.09-18.75 513.14-12.8 512.99-12.3L512.99-12.3Q512.69-11.25 511.94-11.25ZM511.84-6.6L511.84-6.6Q512.64-6.7 513.04-6.7L513.04-6.7Q516.24-6.7 516.24-3.6L516.24-3.6Q516.24-1.8 515.04-0.6 513.84 0.6 512.04 0.6L512.04 0.6Q511.09 0.6 509.62-0.38 508.14-1.35 508.14-3.25L508.14-3.25Q508.14-4.4 509.32-5.35 510.49-6.3 511.84-6.6ZM528.79-33.3L528.79-33.3Q528.79-31.85 528.09-26.65 527.39-21.45 526.74-20.1L526.74-20.1Q526.49-19.85 525.79-19.85 525.09-19.85 524.89-20.05L524.89-20.05Q524.24-21.1 523.54-26.13 522.84-31.15 522.84-32.9L522.84-32.9Q522.84-35.6 525.82-35.6 528.79-35.6 528.79-33.3ZM537.39-33.3L537.39-33.3Q537.39-31.85 536.69-26.65 535.99-21.45 535.34-20.1L535.34-20.1Q535.09-19.85 534.39-19.85 533.69-19.85 533.49-20.05L533.49-20.05Q532.84-21.1 532.14-26.13 531.44-31.15 531.44-32.9L531.44-32.9Q531.44-35.6 534.42-35.6 537.39-35.6 537.39-33.3Z" opacity="1" transform="matrix(1,0,0,1,0,0)" fill="#ffffff" class="slogan-text-1" data-fill-palette-color="quaternary" id="text-1"></path></svg></g></svg></g></svg></g></svg></g><g transform="matrix(1,0,0,1,55.31463901299171,0)"><svg viewBox="0 0 102.52916320117369 102.24810096053083" height="102.24810096053083" width="102.52916320117369"><g><svg xmlns="http://www.w3.org/2000/svg" xmlns:xlink="http://www.w3.org/1999/xlink" version="1.1" x="0" y="0" viewBox="10.603 10.71 78.795 78.57900000000001" enable-background="new 0 0 100 100" xml:space="preserve" height="102.24810096053083" width="102.52916320117369" class="icon-icon-0" data-fill-palette-color="quaternary" id="icon-0"><path d="M79.236 48.382L79.894 48.322C79.106 39.623 71.023 32.886 61.43 32.886L61.168 32.887C56.553 32.958 52.241 34.54 48.895 37.333A20 20 0 0 0 40.74 35.698C36.807 35.751 33.167 36.891 30.179 38.828L23.373 10.71 20.457 11.416 27.588 40.876A16.8 16.8 0 0 0 24.349 45.07L13.462 21.673 10.742 22.939 22.581 48.382H10.603V49.882C10.603 71.611 28.274 89.289 49.996 89.289 71.723 89.289 89.398 71.611 89.398 49.882V48.382zM61.212 35.888L61.436 35.887C69.403 35.887 76.114 41.325 76.876 48.382H58.938C57.846 44.488 55.26 41.158 51.787 38.888 54.453 37.003 57.726 35.942 61.212 35.888M40.779 38.7C47.774 38.605 53.792 42.682 55.799 48.383H26.172C28.171 42.781 34.059 38.791 40.779 38.7M49.995 86.29C30.43 86.29 14.422 70.766 13.633 51.383H56.469L56.471 51.395 56.601 51.383H86.368C85.578 70.765 69.564 86.29 49.995 86.29" fill="#ffffff" data-fill-palette-color="quaternary"></path></svg></g></svg></g><g></g></svg></g></svg></g></svg></g></svg></g><defs></defs></svg><rect width="342.85155851775386" height="342.85155851775386" fill="none" stroke="none" visibility="hidden"></rect></g></svg></g></svg>